<?xml version="1.0" encoding="utf-8"?>
<!-- Generator: Adobe Illustrator 23.0.3, SVG Export Plug-In . SVG Version: 6.00 Build 0)  -->
<svg version="1.1" id="Layer_1" xmlns="http://www.w3.org/2000/svg" xmlns:xlink="http://www.w3.org/1999/xlink" x="0px" y="0px"
	 viewBox="0 0 11520 1080" style="enable-background:new 0 0 11520 1080;" xml:space="preserve">
<style type="text/css">
	.st0{fill:none;stroke:#D8D8D8;stroke-miterlimit:10;}
	.st1{fill:none;stroke:#7C7C7C;stroke-miterlimit:10;}
</style>
<line class="st0" x1="270" y1="0" x2="270" y2="264"/>
<line class="st0" x1="0" y1="270" x2="264" y2="270"/>
<g>
	<line class="st1" x1="270" y1="266" x2="270" y2="274"/>
	<line class="st1" x1="266" y1="270" x2="274" y2="270"/>
</g>
<line class="st0" x1="810" y1="0" x2="810" y2="264"/>
<line class="st0" x1="276" y1="270" x2="804" y2="270"/>
<g>
	<line class="st1" x1="810" y1="266" x2="810" y2="274"/>
	<line class="st1" x1="806" y1="270" x2="814" y2="270"/>
</g>
<line class="st0" x1="1350" y1="0" x2="1350" y2="264"/>
<line class="st0" x1="816" y1="270" x2="1344" y2="270"/>
<g>
	<line class="st1" x1="1350" y1="266" x2="1350" y2="274"/>
	<line class="st1" x1="1346" y1="270" x2="1354" y2="270"/>
</g>
<line class="st0" x1="1890" y1="0" x2="1890" y2="264"/>
<line class="st0" x1="1356" y1="270" x2="1884" y2="270"/>
<g>
	<line class="st1" x1="1890" y1="266" x2="1890" y2="274"/>
	<line class="st1" x1="1886" y1="270" x2="1894" y2="270"/>
</g>
<line class="st0" x1="2430" y1="0" x2="2430" y2="264"/>
<line class="st0" x1="1896" y1="270" x2="2424" y2="270"/>
<g>
	<line class="st1" x1="2430" y1="266" x2="2430" y2="274"/>
	<line class="st1" x1="2426" y1="270" x2="2434" y2="270"/>
</g>
<line class="st0" x1="2970" y1="0" x2="2970" y2="264"/>
<line class="st0" x1="2436" y1="270" x2="2964" y2="270"/>
<g>
	<line class="st1" x1="2970" y1="266" x2="2970" y2="274"/>
	<line class="st1" x1="2966" y1="270" x2="2974" y2="270"/>
</g>
<line class="st0" x1="3510" y1="0" x2="3510" y2="264"/>
<line class="st0" x1="2976" y1="270" x2="3504" y2="270"/>
<g>
	<line class="st1" x1="3510" y1="266" x2="3510" y2="274"/>
	<line class="st1" x1="3506" y1="270" x2="3514" y2="270"/>
</g>
<line class="st0" x1="4050" y1="0" x2="4050" y2="264"/>
<line class="st0" x1="3516" y1="270" x2="4044" y2="270"/>
<g>
	<line class="st1" x1="4050" y1="266" x2="4050" y2="274"/>
	<line class="st1" x1="4046" y1="270" x2="4054" y2="270"/>
</g>
<line class="st0" x1="4590" y1="0" x2="4590" y2="264"/>
<line class="st0" x1="4056" y1="270" x2="4584" y2="270"/>
<g>
	<line class="st1" x1="4590" y1="266" x2="4590" y2="274"/>
	<line class="st1" x1="4586" y1="270" x2="4594" y2="270"/>
</g>
<line class="st0" x1="5130" y1="0" x2="5130" y2="264"/>
<line class="st0" x1="4596" y1="270" x2="5124" y2="270"/>
<g>
	<line class="st1" x1="5130" y1="266" x2="5130" y2="274"/>
	<line class="st1" x1="5126" y1="270" x2="5134" y2="270"/>
</g>
<line class="st0" x1="5670" y1="0" x2="5670" y2="264"/>
<line class="st0" x1="5136" y1="270" x2="5664" y2="270"/>
<g>
	<line class="st1" x1="5670" y1="266" x2="5670" y2="274"/>
	<line class="st1" x1="5666" y1="270" x2="5674" y2="270"/>
</g>
<line class="st0" x1="6210" y1="0" x2="6210" y2="264"/>
<line class="st0" x1="5676" y1="270" x2="6204" y2="270"/>
<g>
	<line class="st1" x1="6210" y1="266" x2="6210" y2="274"/>
	<line class="st1" x1="6206" y1="270" x2="6214" y2="270"/>
</g>
<line class="st0" x1="6750" y1="0" x2="6750" y2="264"/>
<line class="st0" x1="6216" y1="270" x2="6744" y2="270"/>
<g>
	<line class="st1" x1="6750" y1="266" x2="6750" y2="274"/>
	<line class="st1" x1="6746" y1="270" x2="6754" y2="270"/>
</g>
<line class="st0" x1="7290" y1="0" x2="7290" y2="264"/>
<line class="st0" x1="6756" y1="270" x2="7284" y2="270"/>
<g>
	<line class="st1" x1="7290" y1="266" x2="7290" y2="274"/>
	<line class="st1" x1="7286" y1="270" x2="7294" y2="270"/>
</g>
<line class="st0" x1="7830" y1="0" x2="7830" y2="264"/>
<line class="st0" x1="7296" y1="270" x2="7824" y2="270"/>
<g>
	<line class="st1" x1="7830" y1="266" x2="7830" y2="274"/>
	<line class="st1" x1="7826" y1="270" x2="7834" y2="270"/>
</g>
<line class="st0" x1="8370" y1="0" x2="8370" y2="264"/>
<line class="st0" x1="7836" y1="270" x2="8364" y2="270"/>
<g>
	<line class="st1" x1="8370" y1="266" x2="8370" y2="274"/>
	<line class="st1" x1="8366" y1="270" x2="8374" y2="270"/>
</g>
<line class="st0" x1="270" y1="816" x2="270" y2="1080"/>
<line class="st0" x1="270" y1="276" x2="270" y2="804"/>
<line class="st0" x1="0" y1="810" x2="264" y2="810"/>
<g>
	<line class="st1" x1="270" y1="806" x2="270" y2="814"/>
	<line class="st1" x1="266" y1="810" x2="274" y2="810"/>
</g>
<line class="st0" x1="810" y1="816" x2="810" y2="1080"/>
<line class="st0" x1="810" y1="276" x2="810" y2="804"/>
<line class="st0" x1="276" y1="810" x2="804" y2="810"/>
<g>
	<line class="st1" x1="810" y1="806" x2="810" y2="814"/>
	<line class="st1" x1="806" y1="810" x2="814" y2="810"/>
</g>
<line class="st0" x1="1350" y1="816" x2="1350" y2="1080"/>
<line class="st0" x1="1350" y1="276" x2="1350" y2="804"/>
<line class="st0" x1="816" y1="810" x2="1344" y2="810"/>
<g>
	<line class="st1" x1="1350" y1="806" x2="1350" y2="814"/>
	<line class="st1" x1="1346" y1="810" x2="1354" y2="810"/>
</g>
<line class="st0" x1="1890" y1="816" x2="1890" y2="1080"/>
<line class="st0" x1="1890" y1="276" x2="1890" y2="804"/>
<line class="st0" x1="1356" y1="810" x2="1884" y2="810"/>
<g>
	<line class="st1" x1="1890" y1="806" x2="1890" y2="814"/>
	<line class="st1" x1="1886" y1="810" x2="1894" y2="810"/>
</g>
<line class="st0" x1="2430" y1="816" x2="2430" y2="1080"/>
<line class="st0" x1="2430" y1="276" x2="2430" y2="804"/>
<line class="st0" x1="1896" y1="810" x2="2424" y2="810"/>
<g>
	<line class="st1" x1="2430" y1="806" x2="2430" y2="814"/>
	<line class="st1" x1="2426" y1="810" x2="2434" y2="810"/>
</g>
<line class="st0" x1="2970" y1="816" x2="2970" y2="1080"/>
<line class="st0" x1="2970" y1="276" x2="2970" y2="804"/>
<line class="st0" x1="2436" y1="810" x2="2964" y2="810"/>
<g>
	<line class="st1" x1="2970" y1="806" x2="2970" y2="814"/>
	<line class="st1" x1="2966" y1="810" x2="2974" y2="810"/>
</g>
<line class="st0" x1="3510" y1="816" x2="3510" y2="1080"/>
<line class="st0" x1="3510" y1="276" x2="3510" y2="804"/>
<line class="st0" x1="2976" y1="810" x2="3504" y2="810"/>
<g>
	<line class="st1" x1="3510" y1="806" x2="3510" y2="814"/>
	<line class="st1" x1="3506" y1="810" x2="3514" y2="810"/>
</g>
<line class="st0" x1="4050" y1="816" x2="4050" y2="1080"/>
<line class="st0" x1="4050" y1="276" x2="4050" y2="804"/>
<line class="st0" x1="3516" y1="810" x2="4044" y2="810"/>
<g>
	<line class="st1" x1="4050" y1="806" x2="4050" y2="814"/>
	<line class="st1" x1="4046" y1="810" x2="4054" y2="810"/>
</g>
<line class="st0" x1="4590" y1="816" x2="4590" y2="1080"/>
<line class="st0" x1="4590" y1="276" x2="4590" y2="804"/>
<line class="st0" x1="4056" y1="810" x2="4584" y2="810"/>
<g>
	<line class="st1" x1="4590" y1="806" x2="4590" y2="814"/>
	<line class="st1" x1="4586" y1="810" x2="4594" y2="810"/>
</g>
<line class="st0" x1="5130" y1="816" x2="5130" y2="1080"/>
<line class="st0" x1="5130" y1="276" x2="5130" y2="804"/>
<line class="st0" x1="4596" y1="810" x2="5124" y2="810"/>
<g>
	<line class="st1" x1="5130" y1="806" x2="5130" y2="814"/>
	<line class="st1" x1="5126" y1="810" x2="5134" y2="810"/>
</g>
<line class="st0" x1="5670" y1="816" x2="5670" y2="1080"/>
<line class="st0" x1="5670" y1="276" x2="5670" y2="804"/>
<line class="st0" x1="5136" y1="810" x2="5664" y2="810"/>
<g>
	<line class="st1" x1="5670" y1="806" x2="5670" y2="814"/>
	<line class="st1" x1="5666" y1="810" x2="5674" y2="810"/>
</g>
<line class="st0" x1="6210" y1="816" x2="6210" y2="1080"/>
<line class="st0" x1="6210" y1="276" x2="6210" y2="804"/>
<line class="st0" x1="5676" y1="810" x2="6204" y2="810"/>
<g>
	<line class="st1" x1="6210" y1="806" x2="6210" y2="814"/>
	<line class="st1" x1="6206" y1="810" x2="6214" y2="810"/>
</g>
<line class="st0" x1="6750" y1="816" x2="6750" y2="1080"/>
<line class="st0" x1="6750" y1="276" x2="6750" y2="804"/>
<line class="st0" x1="6216" y1="810" x2="6744" y2="810"/>
<g>
	<line class="st1" x1="6750" y1="806" x2="6750" y2="814"/>
	<line class="st1" x1="6746" y1="810" x2="6754" y2="810"/>
</g>
<line class="st0" x1="7290" y1="816" x2="7290" y2="1080"/>
<line class="st0" x1="7290" y1="276" x2="7290" y2="804"/>
<line class="st0" x1="6756" y1="810" x2="7284" y2="810"/>
<g>
	<line class="st1" x1="7290" y1="806" x2="7290" y2="814"/>
	<line class="st1" x1="7286" y1="810" x2="7294" y2="810"/>
</g>
<line class="st0" x1="7830" y1="816" x2="7830" y2="1080"/>
<line class="st0" x1="7830" y1="276" x2="7830" y2="804"/>
<line class="st0" x1="7296" y1="810" x2="7824" y2="810"/>
<g>
	<line class="st1" x1="7830" y1="806" x2="7830" y2="814"/>
	<line class="st1" x1="7826" y1="810" x2="7834" y2="810"/>
</g>
<line class="st0" x1="8370" y1="816" x2="8370" y2="1080"/>
<line class="st0" x1="8370" y1="276" x2="8370" y2="804"/>
<line class="st0" x1="7836" y1="810" x2="8364" y2="810"/>
<g>
	<line class="st1" x1="8370" y1="806" x2="8370" y2="814"/>
	<line class="st1" x1="8366" y1="810" x2="8374" y2="810"/>
</g>
<line class="st0" x1="8910" y1="0" x2="8910" y2="264"/>
<line class="st0" x1="8376" y1="270" x2="8904" y2="270"/>
<g>
	<line class="st1" x1="8910" y1="266" x2="8910" y2="274"/>
	<line class="st1" x1="8906" y1="270" x2="8914" y2="270"/>
</g>
<line class="st0" x1="8910" y1="816" x2="8910" y2="1080"/>
<line class="st0" x1="8910" y1="276" x2="8910" y2="804"/>
<line class="st0" x1="8376" y1="810" x2="8904" y2="810"/>
<g>
	<line class="st1" x1="8910" y1="806" x2="8910" y2="814"/>
	<line class="st1" x1="8906" y1="810" x2="8914" y2="810"/>
</g>
<line class="st0" x1="9450" y1="0" x2="9450" y2="264"/>
<line class="st0" x1="8916" y1="270" x2="9444" y2="270"/>
<g>
	<line class="st1" x1="9450" y1="266" x2="9450" y2="274"/>
	<line class="st1" x1="9446" y1="270" x2="9454" y2="270"/>
</g>
<line class="st0" x1="9450" y1="816" x2="9450" y2="1080"/>
<line class="st0" x1="9450" y1="276" x2="9450" y2="804"/>
<line class="st0" x1="8916" y1="810" x2="9444" y2="810"/>
<g>
	<line class="st1" x1="9450" y1="806" x2="9450" y2="814"/>
	<line class="st1" x1="9446" y1="810" x2="9454" y2="810"/>
</g>
<line class="st0" x1="9990" y1="0" x2="9990" y2="264"/>
<line class="st0" x1="9456" y1="270" x2="9984" y2="270"/>
<g>
	<line class="st1" x1="9990" y1="266" x2="9990" y2="274"/>
	<line class="st1" x1="9986" y1="270" x2="9994" y2="270"/>
</g>
<line class="st0" x1="9990" y1="816" x2="9990" y2="1080"/>
<line class="st0" x1="9990" y1="276" x2="9990" y2="804"/>
<line class="st0" x1="9456" y1="810" x2="9984" y2="810"/>
<g>
	<line class="st1" x1="9990" y1="806" x2="9990" y2="814"/>
	<line class="st1" x1="9986" y1="810" x2="9994" y2="810"/>
</g>
<line class="st0" x1="10530" y1="0" x2="10530" y2="264"/>
<line class="st0" x1="9996" y1="270" x2="10524" y2="270"/>
<g>
	<line class="st1" x1="10530" y1="266" x2="10530" y2="274"/>
	<line class="st1" x1="10526" y1="270" x2="10534" y2="270"/>
</g>
<line class="st0" x1="10530" y1="816" x2="10530" y2="1080"/>
<line class="st0" x1="10530" y1="276" x2="10530" y2="804"/>
<line class="st0" x1="9996" y1="810" x2="10524" y2="810"/>
<g>
	<line class="st1" x1="10530" y1="806" x2="10530" y2="814"/>
	<line class="st1" x1="10526" y1="810" x2="10534" y2="810"/>
</g>
<line class="st0" x1="11070" y1="0" x2="11070" y2="264"/>
<line class="st0" x1="10536" y1="270" x2="11064" y2="270"/>
<g>
	<line class="st1" x1="11070" y1="266" x2="11070" y2="274"/>
	<line class="st1" x1="11066" y1="270" x2="11074" y2="270"/>
</g>
<line class="st0" x1="11070" y1="816" x2="11070" y2="1080"/>
<line class="st0" x1="11070" y1="276" x2="11070" y2="804"/>
<line class="st0" x1="10536" y1="810" x2="11064" y2="810"/>
<g>
	<line class="st1" x1="11070" y1="806" x2="11070" y2="814"/>
	<line class="st1" x1="11066" y1="810" x2="11074" y2="810"/>
</g>
<line class="st0" x1="11076" y1="270" x2="11520" y2="270"/>
<line class="st0" x1="11076" y1="810" x2="11520" y2="810"/>
</svg>
