<?xml version="1.0" encoding="utf-8"?>
<!-- Generator: Adobe Illustrator 23.0.3, SVG Export Plug-In . SVG Version: 6.00 Build 0)  -->
<svg version="1.1" id="Layer_2" xmlns="http://www.w3.org/2000/svg" xmlns:xlink="http://www.w3.org/1999/xlink" x="0px" y="0px"
	 viewBox="0 0 11520 1080" style="enable-background:new 0 0 11520 1080;" xml:space="preserve">
<style type="text/css">
	.st0{fill:none;stroke:#BFBFBF;stroke-miterlimit:10;}
	.st1{fill:none;stroke:#F2F2F2;stroke-miterlimit:10;}
</style>
<g>
	<line class="st0" x1="540" y1="0" x2="540" y2="3"/>
	<line class="st0" x1="537" y1="0" x2="543" y2="0"/>
</g>
<g>
	<line class="st0" x1="540" y1="537" x2="540" y2="543"/>
	<line class="st0" x1="537" y1="540" x2="543" y2="540"/>
</g>
<g>
	<line class="st0" x1="0" y1="537" x2="0" y2="543"/>
	<line class="st0" x1="0" y1="540" x2="3" y2="540"/>
</g>
<line class="st0" x1="540" y1="1077" x2="540" y2="1080"/>
<line class="st0" x1="537" y1="1080" x2="543" y2="1080"/>
<line class="st1" x1="540" y1="5" x2="540" y2="535"/>
<line class="st1" x1="540" y1="545" x2="540" y2="1075"/>
<line class="st1" x1="535" y1="540" x2="5" y2="540"/>
<g>
	<line class="st0" x1="1080" y1="0" x2="1080" y2="3"/>
	<line class="st0" x1="1077" y1="0" x2="1083" y2="0"/>
</g>
<g>
	<line class="st0" x1="1080" y1="537" x2="1080" y2="543"/>
	<line class="st0" x1="1077" y1="540" x2="1083" y2="540"/>
</g>
<line class="st0" x1="1080" y1="1077" x2="1080" y2="1080"/>
<line class="st0" x1="1077" y1="1080" x2="1083" y2="1080"/>
<line class="st1" x1="1080" y1="5" x2="1080" y2="535"/>
<line class="st1" x1="1080" y1="545" x2="1080" y2="1075"/>
<line class="st1" x1="1075" y1="540" x2="545" y2="540"/>
<g>
	<line class="st0" x1="1620" y1="0" x2="1620" y2="3"/>
	<line class="st0" x1="1617" y1="0" x2="1623" y2="0"/>
</g>
<g>
	<line class="st0" x1="1620" y1="537" x2="1620" y2="543"/>
	<line class="st0" x1="1617" y1="540" x2="1623" y2="540"/>
</g>
<line class="st0" x1="1620" y1="1077" x2="1620" y2="1080"/>
<line class="st0" x1="1617" y1="1080" x2="1623" y2="1080"/>
<line class="st1" x1="1620" y1="5" x2="1620" y2="535"/>
<line class="st1" x1="1620" y1="545" x2="1620" y2="1075"/>
<line class="st1" x1="1615" y1="540" x2="1085" y2="540"/>
<g>
	<line class="st0" x1="2160" y1="0" x2="2160" y2="3"/>
	<line class="st0" x1="2157" y1="0" x2="2163" y2="0"/>
</g>
<g>
	<line class="st0" x1="2160" y1="537" x2="2160" y2="543"/>
	<line class="st0" x1="2157" y1="540" x2="2163" y2="540"/>
</g>
<line class="st0" x1="2160" y1="1077" x2="2160" y2="1080"/>
<line class="st0" x1="2157" y1="1080" x2="2163" y2="1080"/>
<line class="st1" x1="2160" y1="5" x2="2160" y2="535"/>
<line class="st1" x1="2160" y1="545" x2="2160" y2="1075"/>
<line class="st1" x1="2155" y1="540" x2="1625" y2="540"/>
<g>
	<line class="st0" x1="2700" y1="0" x2="2700" y2="3"/>
	<line class="st0" x1="2697" y1="0" x2="2703" y2="0"/>
</g>
<g>
	<line class="st0" x1="2700" y1="537" x2="2700" y2="543"/>
	<line class="st0" x1="2697" y1="540" x2="2703" y2="540"/>
</g>
<line class="st0" x1="2700" y1="1077" x2="2700" y2="1080"/>
<line class="st0" x1="2697" y1="1080" x2="2703" y2="1080"/>
<line class="st1" x1="2700" y1="5" x2="2700" y2="535"/>
<line class="st1" x1="2700" y1="545" x2="2700" y2="1075"/>
<line class="st1" x1="2695" y1="540" x2="2165" y2="540"/>
<g>
	<line class="st0" x1="3240" y1="0" x2="3240" y2="3"/>
	<line class="st0" x1="3237" y1="0" x2="3243" y2="0"/>
</g>
<g>
	<line class="st0" x1="3240" y1="537" x2="3240" y2="543"/>
	<line class="st0" x1="3237" y1="540" x2="3243" y2="540"/>
</g>
<line class="st0" x1="3240" y1="1077" x2="3240" y2="1080"/>
<line class="st0" x1="3237" y1="1080" x2="3243" y2="1080"/>
<line class="st1" x1="3240" y1="5" x2="3240" y2="535"/>
<line class="st1" x1="3240" y1="545" x2="3240" y2="1075"/>
<line class="st1" x1="3235" y1="540" x2="2705" y2="540"/>
<g>
	<line class="st0" x1="3780" y1="0" x2="3780" y2="3"/>
	<line class="st0" x1="3777" y1="0" x2="3783" y2="0"/>
</g>
<g>
	<line class="st0" x1="3780" y1="537" x2="3780" y2="543"/>
	<line class="st0" x1="3777" y1="540" x2="3783" y2="540"/>
</g>
<line class="st0" x1="3780" y1="1077" x2="3780" y2="1080"/>
<line class="st0" x1="3777" y1="1080" x2="3783" y2="1080"/>
<line class="st1" x1="3780" y1="5" x2="3780" y2="535"/>
<line class="st1" x1="3780" y1="545" x2="3780" y2="1075"/>
<line class="st1" x1="3775" y1="540" x2="3245" y2="540"/>
<g>
	<line class="st0" x1="4320" y1="0" x2="4320" y2="3"/>
	<line class="st0" x1="4317" y1="0" x2="4323" y2="0"/>
</g>
<g>
	<line class="st0" x1="4320" y1="537" x2="4320" y2="543"/>
	<line class="st0" x1="4317" y1="540" x2="4323" y2="540"/>
</g>
<line class="st0" x1="4320" y1="1077" x2="4320" y2="1080"/>
<line class="st0" x1="4317" y1="1080" x2="4323" y2="1080"/>
<line class="st1" x1="4320" y1="5" x2="4320" y2="535"/>
<line class="st1" x1="4320" y1="545" x2="4320" y2="1075"/>
<line class="st1" x1="4315" y1="540" x2="3785" y2="540"/>
<g>
	<line class="st0" x1="4860" y1="0" x2="4860" y2="3"/>
	<line class="st0" x1="4857" y1="0" x2="4863" y2="0"/>
</g>
<g>
	<line class="st0" x1="4860" y1="537" x2="4860" y2="543"/>
	<line class="st0" x1="4857" y1="540" x2="4863" y2="540"/>
</g>
<line class="st0" x1="4860" y1="1077" x2="4860" y2="1080"/>
<line class="st0" x1="4857" y1="1080" x2="4863" y2="1080"/>
<line class="st1" x1="4860" y1="5" x2="4860" y2="535"/>
<line class="st1" x1="4860" y1="545" x2="4860" y2="1075"/>
<line class="st1" x1="4855" y1="540" x2="4325" y2="540"/>
<g>
	<line class="st0" x1="5400" y1="0" x2="5400" y2="3"/>
	<line class="st0" x1="5397" y1="0" x2="5403" y2="0"/>
</g>
<g>
	<line class="st0" x1="5400" y1="537" x2="5400" y2="543"/>
	<line class="st0" x1="5397" y1="540" x2="5403" y2="540"/>
</g>
<line class="st0" x1="5400" y1="1077" x2="5400" y2="1080"/>
<line class="st0" x1="5397" y1="1080" x2="5403" y2="1080"/>
<line class="st1" x1="5400" y1="5" x2="5400" y2="535"/>
<line class="st1" x1="5400" y1="545" x2="5400" y2="1075"/>
<line class="st1" x1="5395" y1="540" x2="4865" y2="540"/>
<g>
	<line class="st0" x1="5940" y1="0" x2="5940" y2="3"/>
	<line class="st0" x1="5937" y1="0" x2="5943" y2="0"/>
</g>
<g>
	<line class="st0" x1="5940" y1="537" x2="5940" y2="543"/>
	<line class="st0" x1="5937" y1="540" x2="5943" y2="540"/>
</g>
<line class="st0" x1="5940" y1="1077" x2="5940" y2="1080"/>
<line class="st0" x1="5937" y1="1080" x2="5943" y2="1080"/>
<line class="st1" x1="5940" y1="5" x2="5940" y2="535"/>
<line class="st1" x1="5940" y1="545" x2="5940" y2="1075"/>
<line class="st1" x1="5935" y1="540" x2="5405" y2="540"/>
<g>
	<line class="st0" x1="6480" y1="0" x2="6480" y2="3"/>
	<line class="st0" x1="6477" y1="0" x2="6483" y2="0"/>
</g>
<g>
	<line class="st0" x1="6480" y1="537" x2="6480" y2="543"/>
	<line class="st0" x1="6477" y1="540" x2="6483" y2="540"/>
</g>
<line class="st0" x1="6480" y1="1077" x2="6480" y2="1080"/>
<line class="st0" x1="6477" y1="1080" x2="6483" y2="1080"/>
<line class="st1" x1="6480" y1="5" x2="6480" y2="535"/>
<line class="st1" x1="6480" y1="545" x2="6480" y2="1075"/>
<line class="st1" x1="6475" y1="540" x2="5945" y2="540"/>
<g>
	<line class="st0" x1="7020" y1="0" x2="7020" y2="3"/>
	<line class="st0" x1="7017" y1="0" x2="7023" y2="0"/>
</g>
<g>
	<line class="st0" x1="7020" y1="537" x2="7020" y2="543"/>
	<line class="st0" x1="7017" y1="540" x2="7023" y2="540"/>
</g>
<line class="st0" x1="7020" y1="1077" x2="7020" y2="1080"/>
<line class="st0" x1="7017" y1="1080" x2="7023" y2="1080"/>
<line class="st1" x1="7020" y1="5" x2="7020" y2="535"/>
<line class="st1" x1="7020" y1="545" x2="7020" y2="1075"/>
<line class="st1" x1="7015" y1="540" x2="6485" y2="540"/>
<g>
	<line class="st0" x1="7560" y1="0" x2="7560" y2="3"/>
	<line class="st0" x1="7557" y1="0" x2="7563" y2="0"/>
</g>
<g>
	<line class="st0" x1="7560" y1="537" x2="7560" y2="543"/>
	<line class="st0" x1="7557" y1="540" x2="7563" y2="540"/>
</g>
<line class="st0" x1="7560" y1="1077" x2="7560" y2="1080"/>
<line class="st0" x1="7557" y1="1080" x2="7563" y2="1080"/>
<line class="st1" x1="7560" y1="5" x2="7560" y2="535"/>
<line class="st1" x1="7560" y1="545" x2="7560" y2="1075"/>
<line class="st1" x1="7555" y1="540" x2="7025" y2="540"/>
<g>
	<line class="st0" x1="8100" y1="0" x2="8100" y2="3"/>
	<line class="st0" x1="8097" y1="0" x2="8103" y2="0"/>
</g>
<g>
	<line class="st0" x1="8100" y1="537" x2="8100" y2="543"/>
	<line class="st0" x1="8097" y1="540" x2="8103" y2="540"/>
</g>
<line class="st0" x1="8100" y1="1077" x2="8100" y2="1080"/>
<line class="st0" x1="8097" y1="1080" x2="8103" y2="1080"/>
<line class="st1" x1="8100" y1="5" x2="8100" y2="535"/>
<line class="st1" x1="8100" y1="545" x2="8100" y2="1075"/>
<line class="st1" x1="8095" y1="540" x2="7565" y2="540"/>
<g>
	<line class="st0" x1="8640" y1="0" x2="8640" y2="3"/>
	<line class="st0" x1="8637" y1="0" x2="8643" y2="0"/>
</g>
<g>
	<line class="st0" x1="8640" y1="537" x2="8640" y2="543"/>
	<line class="st0" x1="8637" y1="540" x2="8643" y2="540"/>
</g>
<line class="st0" x1="8640" y1="1077" x2="8640" y2="1080"/>
<line class="st0" x1="8637" y1="1080" x2="8643" y2="1080"/>
<line class="st1" x1="8640" y1="5" x2="8640" y2="535"/>
<line class="st1" x1="8640" y1="545" x2="8640" y2="1075"/>
<line class="st1" x1="8635" y1="540" x2="8105" y2="540"/>
<g>
	<line class="st0" x1="9180" y1="0" x2="9180" y2="3"/>
	<line class="st0" x1="9177" y1="0" x2="9183" y2="0"/>
</g>
<g>
	<line class="st0" x1="9180" y1="537" x2="9180" y2="543"/>
	<line class="st0" x1="9177" y1="540" x2="9183" y2="540"/>
</g>
<line class="st0" x1="9180" y1="1077" x2="9180" y2="1080"/>
<line class="st0" x1="9177" y1="1080" x2="9183" y2="1080"/>
<line class="st1" x1="9180" y1="5" x2="9180" y2="535"/>
<line class="st1" x1="9180" y1="545" x2="9180" y2="1075"/>
<line class="st1" x1="9175" y1="540" x2="8645" y2="540"/>
<g>
	<line class="st0" x1="9720" y1="0" x2="9720" y2="3"/>
	<line class="st0" x1="9717" y1="0" x2="9723" y2="0"/>
</g>
<g>
	<line class="st0" x1="9720" y1="537" x2="9720" y2="543"/>
	<line class="st0" x1="9717" y1="540" x2="9723" y2="540"/>
</g>
<line class="st0" x1="9720" y1="1077" x2="9720" y2="1080"/>
<line class="st0" x1="9717" y1="1080" x2="9723" y2="1080"/>
<line class="st1" x1="9720" y1="5" x2="9720" y2="535"/>
<line class="st1" x1="9720" y1="545" x2="9720" y2="1075"/>
<line class="st1" x1="9715" y1="540" x2="9185" y2="540"/>
<g>
	<line class="st0" x1="10260" y1="0" x2="10260" y2="3"/>
	<line class="st0" x1="10257" y1="0" x2="10263" y2="0"/>
</g>
<g>
	<line class="st0" x1="10260" y1="537" x2="10260" y2="543"/>
	<line class="st0" x1="10257" y1="540" x2="10263" y2="540"/>
</g>
<line class="st0" x1="10260" y1="1077" x2="10260" y2="1080"/>
<line class="st0" x1="10257" y1="1080" x2="10263" y2="1080"/>
<line class="st1" x1="10260" y1="5" x2="10260" y2="535"/>
<line class="st1" x1="10260" y1="545" x2="10260" y2="1075"/>
<line class="st1" x1="10255" y1="540" x2="9725" y2="540"/>
<g>
	<line class="st0" x1="10800" y1="0" x2="10800" y2="3"/>
	<line class="st0" x1="10797" y1="0" x2="10803" y2="0"/>
</g>
<g>
	<line class="st0" x1="10800" y1="537" x2="10800" y2="543"/>
	<line class="st0" x1="10797" y1="540" x2="10803" y2="540"/>
</g>
<line class="st0" x1="10800" y1="1077" x2="10800" y2="1080"/>
<line class="st0" x1="10797" y1="1080" x2="10803" y2="1080"/>
<line class="st1" x1="10800" y1="5" x2="10800" y2="535"/>
<line class="st1" x1="10800" y1="545" x2="10800" y2="1075"/>
<line class="st1" x1="10795" y1="540" x2="10265" y2="540"/>
<g>
	<line class="st0" x1="11340" y1="0" x2="11340" y2="3"/>
	<line class="st0" x1="11337" y1="0" x2="11343" y2="0"/>
</g>
<g>
	<line class="st0" x1="11340" y1="537" x2="11340" y2="543"/>
	<line class="st0" x1="11337" y1="540" x2="11343" y2="540"/>
</g>
<line class="st0" x1="11340" y1="1077" x2="11340" y2="1080"/>
<line class="st0" x1="11337" y1="1080" x2="11343" y2="1080"/>
<line class="st1" x1="11340" y1="5" x2="11340" y2="535"/>
<line class="st1" x1="11340" y1="545" x2="11340" y2="1075"/>
<line class="st1" x1="11335" y1="540" x2="10805" y2="540"/>
<line class="st1" x1="11520" y1="540" x2="11345" y2="540"/>
</svg>
