<svg width="20" height="18" viewBox="0 0 20 18" fill="none" xmlns="http://www.w3.org/2000/svg">
  <path d="M19.5951 10.2846C19.5906 10.1209 19.501 9.95463 19.4419 9.8002C19.3733 9.62079 19.305 9.4463 19.2174 9.27262C19.0489 8.94002 18.8902 8.60291 18.736 8.26579C18.6076 7.9848 18.3558 7.53853 18.5257 7.25057C18.6186 7.09348 18.7027 6.96958 18.6577 6.79262C18.6146 6.62304 18.567 6.45572 18.5127 6.28798C18.3635 5.82717 18.1748 5.377 17.9693 4.93094C17.913 4.80826 17.3242 3.74367 17.3242 3.74367L17.8156 3.49975C17.8156 3.49975 17.6656 3.29433 17.6371 3.25378C17.5022 3.06249 17.3255 2.87734 17.1658 2.69916C16.8353 2.3301 16.4519 2.00979 16.0376 1.70401C16.1918 1.65609 16.3462 1.60816 16.5007 1.56044C16.0967 1.33884 15.7034 1.10966 15.2633 0.935987C13.1992 0.122088 10.9098 -0.153991 8.63966 0.0805121C6.53423 0.298221 4.2741 0.880075 2.72814 2.19063C1.18117 3.52617 0.215439 5.35837 0.436721 7.22538C0.494044 7.70974 0.523081 8.1894 0.722334 8.64858C1.85127 11.2513 3.95069 12.8459 4.42805 13.5328C4.90541 14.2197 5.19553 14.9994 5.31318 15.7859C5.36124 16.1068 5.35423 16.4304 5.35899 16.753C5.36049 16.856 5.35298 17.6369 5.35924 18.0002H14.997L15.0045 17.4495C15.0253 16.9877 15.0115 16.5172 15.0673 16.0581C15.0954 15.827 15.0791 15.555 15.22 15.3466C15.361 15.137 15.6178 15.0717 15.8951 15.0396C16.4138 14.9793 17.6687 15.2487 18.1888 15.0123C18.6164 14.818 18.6937 14.5279 18.6056 14.1572C18.5628 13.978 18.568 13.8337 18.6727 13.6723C18.7585 13.5404 18.8762 13.4306 18.9513 13.2926C19.115 12.9923 18.7167 12.6806 18.4614 12.5342C18.6907 12.4375 18.9951 12.3089 19.0529 12.0813C19.0857 11.9527 19.0028 11.8184 18.9555 11.6969C18.9092 11.5781 18.8812 11.4559 18.8492 11.334C18.8209 11.2267 18.7713 10.8279 18.7996 10.7945C18.8279 10.7614 19.5308 10.643 19.5951 10.2846ZM9.72079 9.46637C9.67673 9.51122 9.61816 9.53948 9.55458 9.54972C9.49049 9.55873 9.42316 9.55198 9.36358 9.52351C9.23267 9.46186 6.14849 8.0061 5.63859 6.87434C5.42933 6.41025 5.42282 6.00944 5.61907 5.68483C5.81782 5.35734 6.20131 5.12632 6.79206 4.97784C6.83937 4.96555 6.88993 4.95551 6.94325 4.94814C7.46341 4.86417 8.10423 4.97784 8.54154 5.31474C8.79386 4.8697 9.33705 4.56863 9.85846 4.48569C9.90953 4.4779 9.96259 4.47196 10.0122 4.46889C10.6279 4.42527 11.088 4.52296 11.4222 4.7673C11.7526 5.00835 11.9301 5.38294 11.9466 5.87837C11.9902 7.08078 9.81165 9.36949 9.72079 9.46637ZM12.8645 2.6494C12.7744 3.10079 11.7644 3.82171 11.7218 3.85202C11.7023 3.86656 11.6775 3.8725 11.653 3.8725C11.6277 3.8725 11.6034 3.86594 11.5844 3.85284C11.5416 3.8215 10.5233 3.10079 10.4329 2.6494C10.3969 2.46405 10.4292 2.31556 10.5308 2.2066C10.6339 2.09601 10.7964 2.03211 11.0285 2.01224C11.0472 2.01081 11.0678 2.00938 11.0873 2.00938C11.2883 2.00938 11.5156 2.09007 11.6497 2.24081C11.7832 2.09089 12.0102 2.00938 12.2115 2.00938C12.231 2.00938 12.2513 2.01101 12.2695 2.01224C12.5026 2.0319 12.6645 2.09601 12.7667 2.2066C12.8693 2.31556 12.9008 2.46405 12.8645 2.6494ZM14.441 4.30525C14.2448 4.54795 13.426 4.74661 13.3915 4.75583C13.3749 4.75951 13.3587 4.75808 13.3462 4.75296C13.3306 4.74722 13.3186 4.73842 13.3114 4.72531C13.2966 4.69848 12.9401 4.0601 13.033 3.78013C13.0713 3.66585 13.1386 3.58577 13.233 3.54378C13.3274 3.50282 13.442 3.50139 13.584 3.5401C13.595 3.54296 13.606 3.54727 13.619 3.55157C13.7351 3.5958 13.8413 3.69124 13.8701 3.80675C13.9955 3.74798 14.1539 3.75023 14.2703 3.79385C14.2813 3.79836 14.2919 3.80327 14.3031 3.80901C14.4315 3.87065 14.5049 3.94213 14.5294 4.02774C14.5539 4.11314 14.5211 4.20695 14.441 4.30525Z" fill="#373737"/>
</svg>
