<?xml version="1.0" encoding="utf-8"?>
<!-- Generator: Adobe Illustrator 23.0.3, SVG Export Plug-In . SVG Version: 6.00 Build 0)  -->
<svg version="1.1" id="Layer_1" xmlns="http://www.w3.org/2000/svg" xmlns:xlink="http://www.w3.org/1999/xlink" x="0px" y="0px"
	 viewBox="0 0 11520 1080" style="enable-background:new 0 0 11520 1080;" xml:space="preserve">
<style type="text/css">
	.st0{fill:#F2F2F2;}
</style>
<g>
	<path class="st0" d="M700.4,228.6h519.3V378h-27c-10.8-98.1-29.7-117.9-135-117.9h-53.1v507.6c0,50.4,2.7,52.2,99,57.6v26.1H816.5
		v-26.1c96.3-5.4,99-7.2,99-57.6V260.1h-53.1c-105.3,0-124.2,19.8-135,117.9h-27V228.6z"/>
</g>
<g>
	<path class="st0" d="M2566.8,228.6H2799v26.1l-46.8,4.5c-21.6,1.8-24.3,9.9-17.1,32.4c23.4,72,51.3,151.2,79.2,229.5l83.7,231.3
		l1.8,1.8l93.6-258.3c32.4-90,60.3-169.2,70.2-208.8c4.5-17.1,3.6-26.1-19.8-27.9l-49.5-4.5v-26.1h198.9v26.1
		c-48.6,2.7-59.4,4.5-78.3,46.8c-21.6,47.7-57.6,139.5-94.5,239.4l-115.2,310.5h-63.9l-101.7-288c-31.5-90-64.8-180-93.6-255.6
		c-18-47.7-28.8-51.3-79.2-53.1V228.6z"/>
</g>
<g>
	<path class="st0" d="M4674.5,825.3c79.2-5.4,81-7.2,81-57.6V312.3c0-50.4-1.8-52.2-81-57.6v-26.1h251.1v26.1
		c-78.3,5.4-81,7.2-81,57.6v455.4c0,50.4,2.7,52.2,81,57.6v26.1h-251.1V825.3z"/>
</g>
<g>
	<path class="st0" d="M6544.5,666.9c22.5,100.8,78.3,166.5,162.9,166.5c80.1,0,129.6-46.8,129.6-124.2
		c0-80.1-85.5-121.5-125.1-136.8l-16.2-6.3c-94.5-33.3-170.1-82.8-170.1-177.3c0-118.8,97.2-173.7,207-173.7
		c61.2,0,122.4,15.3,153,39.6v126.9h-27.9c-14.4-90.9-57.6-135-135-135c-75.6,0-115.2,48.6-115.2,114.3c0,54,50.4,92.7,110.7,115.2
		l28.8,10.8c105.3,38.7,177.3,89.1,177.3,195.3c0,91.8-63,182.7-222.3,182.7c-63,0-137.7-17.1-177.3-54l-9-144H6544.5z"/>
</g>
<g>
	<path class="st0" d="M8396.1,825.3c79.2-5.4,81-7.2,81-57.6V312.3c0-50.4-1.8-52.2-81-57.6v-26.1h454.5v147.6h-27
		c-12.6-93.6-33.3-116.1-135.9-116.1h-88.2c-28.8,0-33.3,3.6-33.3,32.4v217.8h126c76.5,0,80.1-21.6,88.2-77.4h27v189.9h-27
		c-8.1-56.7-11.7-78.3-88.2-78.3h-126v198.9c0,44.1,3.6,59.4,22.5,67.5c18.9,7.2,51.3,9,93.6,9c113.4,0,153.9-14.4,174.6-124.2h27
		l-10.8,155.7h-477V825.3z"/>
</g>
<g>
	<path class="st0" d="M10288.7,825.3c79.2-5.4,81-7.2,81-57.6V312.3c0-50.4-1.8-52.2-81-57.6v-26.1h262.8
		c157.5,0,211.5,67.5,211.5,153.9c0,85.5-62.1,142.2-146.7,158.4v1.8c95.4,23.4,111.6,83.7,122.4,163.8
		c8.1,61.2,22.5,111.6,92.7,118.8v26.1h-72.9c-53.1,0-87.3-19.8-100.8-77.4c-9.9-41.4-19.8-112.5-26.1-137.7
		c-15.3-61.2-56.7-78.3-110.7-78.3h-62.1v209.7c0,38.7,0,39.6,2.7,43.2c6.3,10.8,27,10.8,64.8,14.4v26.1h-237.6V825.3z
		 M10529.8,526.5c87.3,0,136.8-41.4,136.8-135.9c0-106.2-75.6-130.5-142.2-130.5c-59.4,0-65.7,7.2-65.7,45v221.4H10529.8z"/>
</g>
</svg>
