<svg xmlns="http://www.w3.org/2000/svg" width="26" height="26" viewBox="0 0 26 26"><defs><mask id="sgtfb" width="2" height="2" x="-1" y="-1"><path fill="#fff" d="M5 1h17v17H5z"/><path d="M6.225 16.616h2v-2h-2zm-1-3h16v4h-16zm1-3h2v-2h-2zm-1-3h16v4h-16zm3-5h-2v2h2zm13-1v4h-16v-4z"/></mask><filter id="sgtfa" width="49" height="52" x="-11" y="-15" filterUnits="userSpaceOnUse"><feOffset dy="3" in="SourceGraphic" result="FeOffset1157Out"/><feGaussianBlur in="FeOffset1157Out" result="FeGaussianBlur1158Out" stdDeviation="2.4 2.4"/></filter></defs><g><g><g filter="url(#sgtfa)"><path fill="none" d="M6.225 16.616h2v-2h-2zm-1-3h16v4h-16zm1-3h2v-2h-2zm-1-3h16v4h-16zm3-5h-2v2h2zm13-1v4h-16v-4z" mask="url(&quot;#sgtfb&quot;)"/><path fill-opacity=".16" d="M6.225 16.616h2v-2h-2zm-1-3h16v4h-16zm1-3h2v-2h-2zm-1-3h16v4h-16zm3-5h-2v2h2zm13-1v4h-16v-4z"/></g><path fill="#fff" d="M6.225 16.616h2v-2h-2zm-1-3h16v4h-16zm1-3h2v-2h-2zm-1-3h16v4h-16zm3-5h-2v2h2zm13-1v4h-16v-4z"/></g></g></svg>