<svg width="18" height="19" viewBox="0 0 18 19" fill="none" xmlns="http://www.w3.org/2000/svg">
  <g clip-path="url(#clip0)">
    <path d="M9.27225 12.2079C9.27225 10.8219 8.613 9.79743 7.251 9.41343C8.24475 8.94018 8.763 8.22318 8.763 7.10793C8.763 4.90893 7.119 4.37268 5.22225 4.37268H0V15.4134H5.3685C7.3815 15.4134 9.27225 14.4512 9.27225 12.2079ZM2.4345 6.25743H4.719C5.59725 6.25743 6.38775 6.50343 6.38775 7.51893C6.38775 8.45643 5.77275 8.83368 4.90275 8.83368H2.4345V6.25743ZM2.43375 13.5384V10.4979H5.08725C6.159 10.4979 6.837 10.9434 6.837 12.0744C6.837 13.1897 6.02775 13.5384 5.037 13.5384H2.43375Z" fill="#24200C"/>
    <path d="M14.0972 15.6226C16.0127 15.6226 17.2531 14.7624 17.8501 12.9339H15.9062C15.6969 13.6164 14.8344 13.9771 14.1654 13.9771C12.8747 13.9771 12.1967 13.2234 12.1967 11.9424H17.9814C18.1644 9.3789 16.7364 7.19415 14.0964 7.19415C11.6522 7.19415 9.99316 9.02565 9.99316 11.4249C9.99316 13.9149 11.5652 15.6226 14.0972 15.6226ZM14.0282 8.85315C15.1344 8.85315 15.6909 9.50115 15.7839 10.5609H12.1997C12.2724 9.51015 12.9722 8.85315 14.0282 8.85315Z" fill="#24200C"/>
    <path d="M11.75 4.95245H16.241V6.03995H11.75V4.95245Z" fill="#24200C"/>
  </g>
  <defs>
    <clipPath id="clip0">
      <rect width="18" height="18" fill="white" transform="translate(0 0.997681)"/>
    </clipPath>
  </defs>
</svg>
