<svg width="18" height="19" viewBox="0 0 18 19" fill="none" xmlns="http://www.w3.org/2000/svg">
  <g clip-path="url(#clip0)">
    <path d="M9.00327 5.37616C6.45102 5.37616 4.38477 7.44466 4.38477 9.99466C4.38477 12.5469 6.45327 14.6132 9.00327 14.6132C11.5555 14.6132 13.6218 12.5447 13.6218 9.99466C13.6218 7.44241 11.5533 5.37616 9.00327 5.37616ZM9.00327 12.9924C7.34652 12.9924 6.00552 11.6507 6.00552 9.99466C6.00552 8.33866 7.34727 6.99691 9.00327 6.99691C10.6593 6.99691 12.001 8.33866 12.001 9.99466C12.0018 11.6507 10.66 12.9924 9.00327 12.9924Z" fill="#24200C"/>
    <path d="M12.7112 1.05471C11.0552 0.977459 6.95342 0.981209 5.29592 1.05471C3.83942 1.12296 2.55467 1.47471 1.51892 2.51046C-0.21208 4.24146 0.00917045 6.57396 0.00917045 9.99471C0.00917045 13.4957 -0.18583 15.7742 1.51892 17.479C3.25667 19.216 5.62292 18.9887 9.00317 18.9887C12.4712 18.9887 13.6682 18.991 14.8944 18.5162C16.5617 17.869 17.8202 16.3787 17.9432 13.702C18.0212 12.0452 18.0167 7.94421 17.9432 6.28671C17.7947 3.12696 16.0989 1.21071 12.7112 1.05471ZM15.3324 16.3337C14.1977 17.4685 12.6234 17.3672 8.98142 17.3672C5.23142 17.3672 3.72767 17.4227 2.63042 16.3225C1.36667 15.0647 1.59542 13.045 1.59542 9.98271C1.59542 5.83896 1.17017 2.85471 5.32892 2.64171C6.28442 2.60796 6.56567 2.59671 8.97092 2.59671L9.00467 2.61921C13.0014 2.61921 16.1372 2.20071 16.3254 6.35871C16.3682 7.30746 16.3779 7.59246 16.3779 9.99396C16.3772 13.7005 16.4477 15.2132 15.3324 16.3337Z" fill="#24200C"/>
    <path d="M13.8048 6.27319C14.4009 6.27319 14.8841 5.78999 14.8841 5.19393C14.8841 4.59788 14.4009 4.11469 13.8048 4.11469C13.2088 4.11469 12.7256 4.59788 12.7256 5.19393C12.7256 5.78999 13.2088 6.27319 13.8048 6.27319Z" fill="#24200C"/>
  </g>
  <defs>
    <clipPath id="clip0">
      <rect width="18" height="18" fill="white" transform="translate(0 0.997681)"/>
    </clipPath>
  </defs>
</svg>
